# xmcd CD database file
#
# Track frame offsets:
#	150
#	42327
#	70459
#	113363
#	151767
#	186246
#	224639
#	262130
#	287362
#
# Disc length: 4276 seconds
#
# Revision: 0
# Processed by: cddbd v1.5.2PL0 Copyright (c) Steve Scherf et al.
# Submitted via: CDex 1.51
#
DISCID=8310b209
DTITLE=Tutu Puoane and Brussels Jazz Orchestra - Mama Africa
DYEAR=2010
DGENRE=Jazz
TTITLE0=The House In Midrand
TTITLE1=What More Can Be Right
TTITLE2=When I've Passed On
TTITLE3=West Wind
TTITLE4=Mountain Shade
TTITLE5=Thanayi
TTITLE6=Mayibuye
TTITLE7=Africa Is Where My Heart Lies
TTITLE8=Umqokozo
EXTD=YEAR: 2010
EXTT0=
EXTT1=
EXTT2=
EXTT3=
EXTT4=
EXTT5=
EXTT6=
EXTT7=
EXTT8=
PLAYORDER=
